<svg xmlns="http://www.w3.org/2000/svg" width="920" height="520" viewBox="0 0 920 520">
  <rect width="100%" height="100%" fill="#fafafa"/>
  <text x="40" y="34" font-size="22" font-weight="700" fill="#18181b">FusionNet MVP Convergence</text>
  <text x="40" y="58" font-size="13" fill="#71717a">Local network simulation: weighted FedAvg across client updates</text>

  <line x1="80" y1="40" x2="80" y2="450" stroke="#d4d4d8" stroke-width="1"/>
  <line x1="80" y1="450" x2="880" y2="450" stroke="#d4d4d8" stroke-width="1"/>
  <line x1="80" y1="245" x2="880" y2="245" stroke="#e4e4e7" stroke-width="1" stroke-dasharray="4 5"/>

  <polyline fill="none" stroke="#0891b2" stroke-width="4" stroke-linecap="round" stroke-linejoin="round" points="80.0,450.0 480.0,75.4 880.0,40.0"/>
  <polyline fill="none" stroke="#16a34a" stroke-width="4" stroke-linecap="round" stroke-linejoin="round" points="80.0,450.0 480.0,75.4 880.0,40.0"/>
  <polyline fill="none" stroke="#7c3aed" stroke-width="4" stroke-linecap="round" stroke-linejoin="round" points="80.0,450.0 480.0,245.0 880.0,40.0"/>

  <text x="96" y="92" font-size="13" fill="#0891b2">Loss improvement</text>
  <text x="96" y="116" font-size="13" fill="#16a34a">Accuracy</text>
  <text x="96" y="140" font-size="13" fill="#7c3aed">Epsilon spent</text>

  <circle cx="86" cy="87" r="5" fill="#0891b2"/>
  <circle cx="86" cy="111" r="5" fill="#16a34a"/>
  <circle cx="86" cy="135" r="5" fill="#7c3aed"/>

  <text x="80.0" y="480" text-anchor="middle" font-size="13" fill="#52525b">R1</text><text x="480.0" y="480" text-anchor="middle" font-size="13" fill="#52525b">R2</text><text x="880.0" y="480" text-anchor="middle" font-size="13" fill="#52525b">R3</text>

  <text x="40" y="480" font-size="12" fill="#71717a">Final loss: 0.0172</text>
  <text x="190" y="480" font-size="12" fill="#71717a">Final accuracy: 98.28%</text>
  <text x="380" y="480" font-size="12" fill="#71717a">Final epsilon: 0.57</text>
</svg>
